<svg id="Capa_1" data-name="Capa 1" xmlns="http://www.w3.org/2000/svg" viewBox="0 0 41.72 43.11"><defs><style>.cls-1{fill:#f1e9e5;}.cls-2{fill:#d36822;fill-rule:evenodd;}</style></defs><title>REDES</title><circle class="cls-1" cx="20.86" cy="21.18" r="20.86"/><path class="cls-2" d="M25.62,31.41h0l-2.5-3.59,4.46-6.54H26.32l1.12-2.35,6.84,3-1.93,4S29.57,32,25.62,31.41Z"/><path class="cls-2" d="M23.71,10.85,18.79,21c-.05.1-.09.19-.13.29H12.21l4.38,6.47L14.5,30.83a12.32,12.32,0,0,1-1.56-1.2,8.75,8.75,0,0,1-2.39-3.21A7.77,7.77,0,0,1,10,22.61a13.38,13.38,0,0,1,1.34-4.38L16.65,7.37Z"/><polygon class="cls-2" points="13.13 34.22 17.62 27.79 13.77 22.04 18.49 22.04 19.87 24.67 21.36 22.04 26.03 22.04 22.12 27.79 26.53 34.22 21.64 34.22 19.84 30.95 18 34.22 13.13 34.22"/><circle class="cls-1" cx="20.86" cy="22.26" r="20.86"/><path class="cls-2" d="M25.62,32.48h0l-2.5-3.59,4.46-6.54H26.32L27.44,20l6.84,3-1.93,4S29.57,33.05,25.62,32.48Z"/><path class="cls-2" d="M23.71,11.93,18.79,22.07a2.39,2.39,0,0,0-.13.28H12.21l4.38,6.47L14.5,31.91a14.51,14.51,0,0,1-1.56-1.2,8.86,8.86,0,0,1-2.39-3.22A7.77,7.77,0,0,1,10,23.68a13.38,13.38,0,0,1,1.34-4.38L16.65,8.44Z"/><polygon class="cls-2" points="13.13 35.29 17.62 28.86 13.77 23.11 18.49 23.11 19.87 25.74 21.36 23.11 26.03 23.11 22.12 28.86 26.53 35.29 21.64 35.29 19.84 32.02 18 35.29 13.13 35.29"/></svg>